<?xml version="1.0" encoding="UTF-8" standalone="no"?>
<svg
   xmlns:dc="http://purl.org/dc/elements/1.1/"
   xmlns:cc="http://creativecommons.org/ns#"
   xmlns:rdf="http://www.w3.org/1999/02/22-rdf-syntax-ns#"
   xmlns:svg="http://www.w3.org/2000/svg"
   xmlns="http://www.w3.org/2000/svg"
   xmlns:sodipodi="http://sodipodi.sourceforge.net/DTD/sodipodi-0.dtd"
   xmlns:inkscape="http://www.inkscape.org/namespaces/inkscape"
   width="512"
   height="512"
   viewBox="0 0 135.46666 135.46667"
   version="1.1"
   id="svg8"
   inkscape:version="1.0.2 (e86c870879, 2021-01-15)"
   sodipodi:docname="gear_icon.svg">
  <defs
     id="defs2">
	
	
</defs>
  <sodipodi:namedview
     id="base"
     pagecolor="#ffffff"
     bordercolor="#666666"
     borderopacity="1.0"
     inkscape:pageopacity="0.0"
     inkscape:pageshadow="2"
     inkscape:zoom="0.35"
     inkscape:cx="-195.71429"
     inkscape:cy="560"
     inkscape:document-units="px"
     inkscape:current-layer="layer1"
     inkscape:document-rotation="0"
     showgrid="false"
     units="px"
     inkscape:window-width="1458"
     inkscape:window-height="1016"
     inkscape:window-x="50"
     inkscape:window-y="27"
     inkscape:window-maximized="0" />
  <metadata
     id="metadata5">
    <rdf:RDF>
      <cc:Work
         rdf:about="">
        <dc:format>image/svg+xml</dc:format>
        <dc:type
           rdf:resource="http://purl.org/dc/dcmitype/StillImage" />
        <dc:title></dc:title>
      </cc:Work>
    </rdf:RDF>
  </metadata>
  <g
     inkscape:label="Layer 1"
     inkscape:groupmode="layer"
     id="layer1">
    <path
       fill="#79c5dd"
       stroke="#21409a"
       stroke-width="3.38694"
       stroke-miterlimit="10"
       d="m 122.63311,68.426804 c 0,-1.707008 -0.10553,-3.360672 -0.21106,-5.014336 l 10.97508,-2.933919 -4.95989,-18.990461 -11.18614,2.987264 c -2.37442,-4.960991 -5.43478,-9.548575 -9.07555,-13.549374 L 115.35157,21.484092 99.944245,9.4816936 92.662702,19.030268 C 87.966635,16.576444 82.848449,14.816093 77.46644,13.855901 V 1.6934709 H 57.996228 V 13.802557 c -5.118185,0.906848 -9.972547,2.560511 -14.457555,4.800959 L 36.362661,8.9482537 20.797045,20.737276 27.867528,30.28585 c -2.691005,2.880576 -5.065421,6.027871 -7.123248,9.441886 L 9.8219661,35.673593 3.0680717,54.130614 13.779326,58.131413 c -0.633177,3.360672 -0.949766,6.774687 -0.949766,10.295391 0,1.226911 0.05276,2.400479 0.158294,3.627391 L 2.0655405,74.934771 6.9726669,93.978575 17.631156,91.151344 c 2.321652,5.174367 5.38201,9.975326 9.075546,14.136156 l -6.5956,8.69507 15.407322,12.05574 6.542835,-8.53503 c 4.907126,2.61385 10.289136,4.53423 15.93497,5.54777 v 10.72214 H 77.46644 v -10.72214 c 5.382009,-0.96019 10.500195,-2.72054 15.249027,-5.17437 l 6.384541,8.64173 15.565612,-11.78902 -6.49007,-8.74842 c 2.74377,-3.0406 5.17095,-6.401276 7.17602,-9.975323 l 10.28913,3.840767 6.70113,-18.457021 -10.50019,-3.894111 c 0.52764,-3.040607 0.79147,-6.027871 0.79147,-9.068478 z M 67.757716,105.50088 c -20.631036,0 -37.357478,-16.910048 -37.357478,-37.767548 0,-20.857501 16.726442,-37.767546 37.357478,-37.767546 20.631037,0 37.357474,16.910045 37.357474,37.767546 0,20.8575 -16.726437,37.767548 -37.357474,37.767548 z"
       id="path18" />
  </g>
</svg>
