<?xml version="1.0" encoding="utf-8"?>
<!-- Generator: Adobe Illustrator 18.0.0, SVG Export Plug-In . SVG Version: 6.00 Build 0)  -->
<!DOCTYPE svg PUBLIC "-//W3C//DTD SVG 1.1//EN" "http://www.w3.org/Graphics/SVG/1.1/DTD/svg11.dtd">
<svg version="1.1" id="Layer_1" xmlns="http://www.w3.org/2000/svg" xmlns:xlink="http://www.w3.org/1999/xlink" x="0px" y="0px"
	 viewBox="0 0 265.3 274.4" enable-background="new 0 0 265.3 274.4" xml:space="preserve">
<g>
	<path fill="#79C5DD" stroke="#21409A" stroke-width="6.384" stroke-miterlimit="10" d="M236.5,138.5c0-3.2-0.2-6.3-0.4-9.4
		l20.8-5.5L247.5,88l-21.2,5.6c-4.5-9.3-10.3-17.9-17.2-25.4l13.6-17.7l-29.2-22.5l-13.8,17.9c-8.9-4.6-18.6-7.9-28.8-9.7V13.4H114
		v22.7c-9.7,1.7-18.9,4.8-27.4,9L73,27L43.5,49.1L56.9,67c-5.1,5.4-9.6,11.3-13.5,17.7l-20.7-7.6L9.9,111.7l20.3,7.5
		c-1.2,6.3-1.8,12.7-1.8,19.3c0,2.3,0.1,4.5,0.3,6.8L8,150.7l9.3,35.7l20.2-5.3c4.4,9.7,10.2,18.7,17.2,26.5l-12.5,16.3l29.2,22.6
		l12.4-16c9.3,4.9,19.5,8.5,30.2,10.4V261h36.9v-20.1c10.2-1.8,19.9-5.1,28.9-9.7l12.1,16.2l29.5-22.1l-12.3-16.4
		c5.2-5.7,9.8-12,13.6-18.7l19.5,7.2l12.7-34.6l-19.9-7.3C236,149.8,236.5,144.2,236.5,138.5z M132.5,208
		c-39.1,0-70.8-31.7-70.8-70.8c0-39.1,31.7-70.8,70.8-70.8c39.1,0,70.8,31.7,70.8,70.8C203.3,176.3,171.6,208,132.5,208z"/>
	<path fill="none" stroke="#21409A" stroke-width="6.384" stroke-miterlimit="10" d="M47.9,137.2c0-46.7,37.8-84.5,84.5-84.5"/>
</g>
</svg>
